HIERARCHY
ROOT Hips
{
	OFFSET 0.00000 0.00000 0.00000
	CHANNELS 6 Xposition Yposition Zposition Zrotation Yrotation Xrotation 
	JOINT LHipJoint
	{
		OFFSET 0 0 0
		CHANNELS 3 Zrotation Yrotation Xrotation
		JOINT LeftUpLeg
		{
			OFFSET 1.65674 -1.80282 0.62477
			CHANNELS 3 Zrotation Yrotation Xrotation
			JOINT LeftLeg
			{
				OFFSET 2.59720 -7.13576 0.00000
				CHANNELS 3 Zrotation Yrotation Xrotation
				JOINT LeftFoot
				{
					OFFSET 2.49236 -6.84770 0.00000
					CHANNELS 3 Zrotation Yrotation Xrotation
					JOINT LeftToeBase
					{
						OFFSET 0.19704 -0.54136 2.14581
						CHANNELS 3 Zrotation Yrotation Xrotation
						End Site
						{
							OFFSET 0.00000 -0.00000 1.11249
						}
					}
				}
			}
		}
	}
	JOINT RHipJoint
	{
		OFFSET 0 0 0
		CHANNELS 3 Zrotation Yrotation Xrotation
		JOINT RightUpLeg
		{
			OFFSET -1.61070 -1.80282 0.62476
			CHANNELS 3 Zrotation Yrotation Xrotation
			JOINT RightLeg
			{
				OFFSET -2.59502 -7.12977 0.00000
				CHANNELS 3 Zrotation Yrotation Xrotation
				JOINT RightFoot
				{
					OFFSET -2.46780 -6.78024 0.00000
					CHANNELS 3 Zrotation Yrotation Xrotation
					JOINT RightToeBase
					{
						OFFSET -0.23024 -0.63258 2.13368
						CHANNELS 3 Zrotation Yrotation Xrotation
						End Site
						{
							OFFSET -0.00000 -0.00000 1.11569
						}
					}
				}
			}
		}
	}
	JOINT LowerBack
	{
		OFFSET 0 0 0
		CHANNELS 3 Zrotation Yrotation Xrotation
		JOINT Spine
		{
			OFFSET 0.01961 2.05450 -0.14112
			CHANNELS 3 Zrotation Yrotation Xrotation
			JOINT Spine1
			{
				OFFSET 0.01021 2.06436 -0.05921
				CHANNELS 3 Zrotation Yrotation Xrotation
				JOINT Neck
				{
					OFFSET 0 0 0
					CHANNELS 3 Zrotation Yrotation Xrotation
					JOINT Neck1
					{
						OFFSET 0.00713 1.56711 0.14968
						CHANNELS 3 Zrotation Yrotation Xrotation
						JOINT Head
						{
							OFFSET 0.03429 1.56041 -0.10006
							CHANNELS 3 Zrotation Yrotation Xrotation
							End Site
							{
								OFFSET 0.01305 1.62560 -0.05265
							}
						}
					}
				}
				JOINT LeftShoulder
				{
					OFFSET 0 0 0
					CHANNELS 3 Zrotation Yrotation Xrotation
					JOINT LeftArm
					{
						OFFSET 3.54205 0.90436 -0.17364
						CHANNELS 3 Zrotation Yrotation Xrotation
						JOINT LeftForeArm
						{
							OFFSET 4.86513 -0.00000 -0.00000
							CHANNELS 3 Zrotation Yrotation Xrotation
							JOINT LeftHand
							{
								OFFSET 3.35554 -0.00000 0.00000
								CHANNELS 3 Zrotation Yrotation Xrotation
								JOINT LeftFingerBase
								{
									OFFSET 0 0 0
									CHANNELS 3 Zrotation Yrotation Xrotation
									JOINT LeftHandIndex1
									{
										OFFSET 0.66117 -0.00000 0.00000
										CHANNELS 3 Zrotation Yrotation Xrotation
										End Site
										{
											OFFSET 0.53306 -0.00000 0.00000
										}
									}
								}
								JOINT LThumb
								{
									OFFSET 0 0 0
									CHANNELS 3 Zrotation Yrotation Xrotation
									End Site
									{
										OFFSET 0.54120 -0.00000 0.54120
									}
								}
							}
						}
					}
				}
				JOINT RightShoulder
				{
					OFFSET 0 0 0
					CHANNELS 3 Zrotation Yrotation Xrotation
					JOINT RightArm
					{
						OFFSET -3.49802 0.75994 -0.32616
						CHANNELS 3 Zrotation Yrotation Xrotation
						JOINT RightForeArm
						{
							OFFSET -5.02649 -0.00000 0.00000
							CHANNELS 3 Zrotation Yrotation Xrotation
							JOINT RightHand
							{
								OFFSET -3.36431 -0.00000 0.00000
								CHANNELS 3 Zrotation Yrotation Xrotation
								JOINT RightFingerBase
								{
									OFFSET 0 0 0
									CHANNELS 3 Zrotation Yrotation Xrotation
									JOINT RightHandIndex1
									{
										OFFSET -0.73041 -0.00000 0.00000
										CHANNELS 3 Zrotation Yrotation Xrotation
										End Site
										{
											OFFSET -0.58887 -0.00000 0.00000
										}
									}
								}
								JOINT RThumb
								{
									OFFSET 0 0 0
									CHANNELS 3 Zrotation Yrotation Xrotation
									End Site
									{
										OFFSET -0.59786 -0.00000 0.59786
									}
								}
							}
						}
					}
				}
			}
		}
	}
}
MOTION
Frames: 8
Frame Time: .0083333
15.7962 17.5098 1.6724 0 0 0 0 0 0 -21 0 0 0 0 0 0 0 0 0 0 0 0 0 0 21 0 0 0 0 0 0 0 0 0 0 0 0 0 0 0 0 0 0 0 0 0 0 -16 0 0 21 0 0 11 0 0 0 -8 0 0 0 0 0 0 0 0 0 0 0 0 0 0 0 0 0 0 0 0 8 0 0 0 0 0 0 0 0 0 0 0 0 0 0 0 0 0
15.7962 17.5098 1.6724 -0.1421 -15.7911 -6.5221 0.0000 0.0000 0.0000 -20.6690 -8.6775 -0.3212 2.9281 10.5777 30.8685 1.0255 -0.1249 -19.1068 0.0570 -1.5410 -4.2388 0.0000 0.0000 0.0000 17.3644 9.2211 -4.8151 -2.6084 -10.0324 29.0816 -0.4208 -5.5112 -15.5166 -0.3589 3.8486 -10.6512 -2.3406 0.7068 6.3924 0.1648 0.8003 3.3693 1.4313 0.3658 -0.1465 -3.2328 -0.3995 -14.3581 0.4005 -0.0252 0.0366 0.6964 -0.0176 2.5109 0.0000 0.0000 0.0000 -98.7792 -12.2688 55.0176 76.6316 -59.3138 -48.4493 -0.0000 0.0000 -26.7770 34.1348 15.4522 10.2387 -7.1250 0.0000 -0.0000 6.3477 48.3439 0.5256 0.0000 0.0000 0.0000 93.7530 16.3124 69.2487 -50.6340 53.2480 -26.6813 0.0000 -0.0000 -11.6580 -47.1475 31.2678 -29.2262 7.1250 -0.0000 -0.0000 -8.4908 11.3774 -10.0988
15.8505 17.5207 1.6587 -0.7748 -16.2650 -6.2407 0.0000 0.0000 0.0000 -20.0116 -8.2636 -0.7995 2.9617 10.6327 31.0510 1.0211 -0.3071 -19.0053 0.0405 -1.2985 -3.5704 0.0000 0.0000 0.0000 17.8640 9.4783 -4.9024 -2.5686 -9.9617 28.8527 -0.4166 -5.3346 -15.3210 -0.3550 3.8281 -10.5936 -1.8764 0.6944 6.5086 0.4026 0.8083 3.3456 1.4134 0.3744 -0.2336 -3.3289 -0.4385 -14.4151 0.4722 -0.0641 -0.1142 0.7337 -0.0334 2.4712 -0.0000 -0.0000 0.0000 -98.8036 -12.2965 55.2374 76.6345 -59.3141 -48.4518 -0.0000 0.0000 -26.7962 33.7627 16.3882 10.6812 -7.1250 0.0000 -0.0000 5.9321 49.3694 0.6412 -0.0000 -0.0000 0.0000 93.3437 16.5376 69.1987 -50.6908 53.2703 -26.7268 0.0000 -0.0000 -11.8281 -47.0961 31.5359 -29.3696 7.1250 -0.0000 -0.0000 -8.3825 11.6575 -9.9994
15.9049 17.5366 1.6389 -0.5006 -16.5481 -5.8055 0.0000 0.0000 0.0000 -20.2849 -7.8601 -1.4767 2.9035 10.5371 30.7343 0.9739 -0.1994 -18.5925 0.0564 -1.5328 -4.2163 0.0000 0.0000 0.0000 17.2514 9.6091 -5.6581 -2.5981 -10.0141 29.0223 -0.4415 -4.7789 -15.2197 -0.3205 3.6389 -10.0629 -2.3465 0.6669 6.2001 0.3677 0.7523 3.2431 1.6475 0.3418 -0.1705 -3.1429 -0.4201 -14.4456 0.3553 -0.0661 -0.1872 0.6623 -0.0379 2.4505 -0.0000 -0.0000 0.0000 -98.6940 -12.5136 55.5104 76.4706 -59.2969 -48.3109 -0.0000 0.0000 -26.9450 33.1174 17.5084 11.1031 -7.1250 0.0000 -0.0000 5.1999 50.5465 0.7124 -0.0000 -0.0000 0.0000 92.9787 16.6241 69.0230 -50.9228 53.3610 -26.9128 0.0000 -0.0000 -11.9284 -46.6641 31.7733 -29.1646 7.1250 -0.0000 -0.0000 -8.0831 11.7197 -9.6424
15.9561 17.5482 1.6214 0.1063 -17.0359 -5.6510 0.0000 0.0000 0.0000 -20.9611 -7.3112 -1.9544 2.8575 10.4607 30.4818 0.9546 0.0048 -18.4754 0.0954 -1.9921 -5.4838 0.0000 0.0000 0.0000 16.3542 9.8285 -6.1512 -2.5968 -10.0118 29.0151 -0.4340 -4.3832 -14.8302 -0.3003 3.5237 -9.7404 -3.1619 0.6747 5.8819 0.2284 0.7306 3.3693 1.9671 0.3161 0.1311 -3.2466 -0.4129 -14.6023 0.6589 -0.0501 -0.4461 0.7800 -0.0171 2.3923 0.0000 -0.0000 0.0000 -98.5961 -13.0281 55.6530 76.3686 -59.2861 -48.2232 -0.0000 0.0000 -27.1608 33.0140 17.8456 11.2614 -7.1250 0.0000 -0.0000 5.0653 50.9148 0.7398 0.0000 -0.0000 0.0000 92.8481 16.9171 68.7444 -51.1796 53.4603 -27.1191 0.0000 -0.0000 -11.6447 -46.1677 31.9574 -28.8687 7.1250 -0.0000 -0.0000 -7.7662 11.6931 -9.2552
16.0076 17.5560 1.6048 0.2124 -17.6113 -5.7727 0.0000 0.0000 0.0000 -21.1401 -6.6762 -1.9459 2.7862 10.3407 30.0872 0.9408 -0.0561 -18.3204 0.0920 -1.9560 -5.3840 0.0000 0.0000 0.0000 16.0909 10.0871 -6.2378 -2.5973 -10.0127 29.0178 -0.4143 -4.2069 -14.4373 -0.3058 3.5552 -9.8286 -3.4336 0.6973 6.1083 0.2101 0.7390 3.4956 2.0989 0.3145 0.1331 -3.3857 -0.5185 -14.7113 0.9480 -0.1769 -0.6137 0.8904 -0.0687 2.3603 0.0000 -0.0000 0.0000 -98.5262 -13.2723 55.7639 76.1424 -59.2618 -48.0288 -0.0000 0.0000 -27.1253 33.1316 17.5745 11.1486 -7.1250 0.0000 -0.0000 5.2092 50.6253 0.7238 0.0000 -0.0000 0.0000 92.8799 17.1517 68.4460 -51.1284 53.4406 -27.0779 0.0000 -0.0000 -11.2874 -46.1809 32.2505 -29.0778 7.1250 -0.0000 -0.0000 -7.6844 12.0288 -9.1909
16.0606 17.5663 1.5878 -0.0990 -18.2448 -5.7404 0.0000 0.0000 0.0000 -20.8378 -6.1313 -1.9654 2.7257 10.2371 29.7481 0.9350 -0.3618 -18.1611 0.0345 -1.1993 -3.2974 0.0000 0.0000 0.0000 16.2989 10.4128 -6.2258 -2.5630 -9.9515 28.8199 -0.3869 -4.1798 -14.0374 -0.2946 3.4900 -9.6461 -3.2775 0.7544 6.4459 0.2991 0.8097 3.4713 2.0950 0.3548 -0.0832 -3.2965 -0.5877 -14.5177 0.9608 -0.2927 -0.8664 0.8690 -0.1243 2.2410 -0.0000 -0.0000 0.0000 -98.3991 -13.3359 56.1342 75.7458 -59.2182 -47.6879 -0.0000 0.0000 -26.9711 33.5823 16.3011 10.5567 -7.1250 0.0000 -0.0000 5.7548 49.2364 0.6030 -0.0000 -0.0000 0.0000 92.8153 17.2478 68.1440 -51.0036 53.3923 -26.9777 0.0000 -0.0000 -11.2392 -46.4023 32.2732 -29.2818 7.1250 -0.0000 -0.0000 -7.7936 12.1586 -9.3372
16.1033 17.5827 1.5685 -0.3777 -18.9551 -5.4708 0.0000 0.0000 0.0000 -20.4696 -5.5274 -2.3138 2.6844 10.1657 29.5151 0.9295 -0.6280 -18.0230 0.0072 -0.5479 -1.5055 0.0000 0.0000 0.0000 16.4937 10.7970 -6.3321 -2.4974 -9.8332 28.4383 -0.3494 -4.2523 -13.5502 -0.2764 3.3815 -9.3427 -3.3723 0.8126 6.4947 0.4414 0.8800 3.4225 2.2894 0.3896 -0.1680 -3.3250 -0.5074 -14.3404 1.1128 -0.1956 -1.1441 0.9272 -0.0693 2.1134 -0.0000 0.0000 0.0000 -98.2833 -13.4636 56.4209 75.6271 -59.2049 -47.5859 -0.0000 0.0000 -26.9488 34.0228 15.3817 10.1521 -7.1250 0.0000 -0.0000 6.2389 48.2426 0.5009 -0.0000 0.0000 0.0000 92.5567 17.2240 67.9056 -51.2934 53.5040 -27.2105 0.0000 -0.0000 -11.4305 -46.2832 32.4961 -29.3299 7.1250 -0.0000 -0.0000 -7.6631 12.3522 -9.1981
